{
    "asset" : {
        "generator" : "Khronos glTF Blender I/O v1.6.16",
        "version" : "2.0"
    },
    "scene" : 0,
    "scenes" : [
        {
            "name" : "Scene",
            "nodes" : [
                0
            ]
        }
    ],
    "nodes" : [
        {
            "mesh" : 0,
            "name" : "Torus"
        }
    ],
    "meshes" : [
        {
            "name" : "Torus",
            "primitives" : [
                {
                    "attributes" : {
                        "POSITION" : 0,
                        "NORMAL" : 1,
                        "TEXCOORD_0" : 2
                    },
                    "indices" : 3
                }
            ]
        }
    ],
    "accessors" : [
        {
            "bufferView" : 0,
            "componentType" : 5126,
            "count" : 1885,
            "max" : [
                0.5,
                0.10000011324882507,
                0.5
            ],
            "min" : [
                -0.5,
                -0.10000011324882507,
                -0.5
            ],
            "type" : "VEC3"
        },
        {
            "bufferView" : 1,
            "componentType" : 5126,
            "count" : 1885,
            "type" : "VEC3"
        },
        {
            "bufferView" : 2,
            "componentType" : 5126,
            "count" : 1885,
            "type" : "VEC2"
        },
        {
            "bufferView" : 3,
            "componentType" : 5123,
            "count" : 10752,
            "type" : "SCALAR"
        }
    ],
    "bufferViews" : [
        {
            "buffer" : 0,
            "byteLength" : 22620,
            "byteOffset" : 0
        },
        {
            "buffer" : 0,
            "byteLength" : 22620,
            "byteOffset" : 22620
        },
        {
            "buffer" : 0,
            "byteLength" : 15080,
            "byteOffset" : 45240
        },
        {
            "buffer" : 0,
            "byteLength" : 21504,
            "byteOffset" : 60320
        }
    ],
    "buffers" : [
        {
            "byteLength" : 81824,
            "uri" : "Torus.bin"
        }
    ]
}
