{
    "asset" : {
        "generator" : "Khronos glTF Blender I/O v1.6.16",
        "version" : "2.0"
    },
    "scene" : 0,
    "scenes" : [
        {
            "name" : "Scene",
            "nodes" : [
                0
            ]
        }
    ],
    "nodes" : [
        {
            "mesh" : 0,
            "name" : "Capsule"
        }
    ],
    "meshes" : [
        {
            "name" : "Mesh",
            "primitives" : [
                {
                    "attributes" : {
                        "POSITION" : 0,
                        "NORMAL" : 1
                    },
                    "indices" : 2
                }
            ]
        }
    ],
    "accessors" : [
        {
            "bufferView" : 0,
            "componentType" : 5126,
            "count" : 891,
            "max" : [
                0.4998536705970764,
                1.0000208616256714,
                0.49975550174713135
            ],
            "min" : [
                -0.5002431273460388,
                -0.9996693730354309,
                -0.4999650716781616
            ],
            "type" : "VEC3"
        },
        {
            "bufferView" : 1,
            "componentType" : 5126,
            "count" : 891,
            "type" : "VEC3"
        },
        {
            "bufferView" : 2,
            "componentType" : 5123,
            "count" : 5334,
            "type" : "SCALAR"
        }
    ],
    "bufferViews" : [
        {
            "buffer" : 0,
            "byteLength" : 10692,
            "byteOffset" : 0
        },
        {
            "buffer" : 0,
            "byteLength" : 10692,
            "byteOffset" : 10692
        },
        {
            "buffer" : 0,
            "byteLength" : 10668,
            "byteOffset" : 21384
        }
    ],
    "buffers" : [
        {
            "byteLength" : 32052,
            "uri" : "Capsule.bin"
        }
    ]
}
